<svg xmlns="http://www.w3.org/2000/svg" class="grammar" width="793.5" height="1348.0" viewBox="0 0 793.5 1348.0">
<style>
  svg.grammar { background: #ffffff; }
  svg.grammar path { stroke-width: 2; stroke: #57606a; fill: none; }
  svg.grammar text {
    font-family: ui-monospace, SFMono-Regular, Menlo, Consolas, monospace;
    font-size: 13px; text-anchor: middle;
  }
  svg.grammar g.terminal rect {
    stroke-width: 2; stroke: #54aeff; fill: #ddf4ff;
  }
  svg.grammar g.terminal text { fill: #0a3069; font-weight: 600; }
  svg.grammar g.non-terminal rect {
    stroke-width: 2; stroke: #afb8c1; fill: #f6f8fa;
  }
  svg.grammar g.non-terminal text { fill: #1f2328; }
  svg.grammar text.comment {
    font-style: italic; font-size: 12px; fill: #6e7781;
  }
  svg.grammar text.heading {
    text-anchor: start; font-size: 15px; font-weight: 700; fill: #1f2328;
    letter-spacing: 0.06em; text-transform: uppercase;
  }
  svg.grammar text.rule-name {
    text-anchor: start; font-size: 14px; font-weight: 700; fill: #1f2328;
  }
  svg.grammar line.divider { stroke: #d1d9e0; stroke-width: 1; }
</style>
<rect width="100%" height="100%" fill="#ffffff"/>
<text class="heading" x="24" y="38">Statements</text>
<text class="rule-name" x="24" y="66.0">Body</text>
<g transform="translate(24 74.0)">
<g transform="translate(.5 .5)">
<g>
<path d="M20 30v20m0 -10h20" /></g><path d="M40 40h10" /><g>
<path d="M50 40h0.0" /><path d="M283.5 40h0.0" /><g class="terminal ">
<path d="M50.0 40h0.0" /><path d="M78.5 40h0.0" /><rect height="22" rx="10" ry="10" width="28.5" x="50" y="29"></rect><text x="64.25" y="44">{</text></g><path d="M78.5 40h10" /><g>
<path d="M88.5 40h0.0" /><path d="M245.0 40h0.0" /><path d="M88.5 40a10 10 0 0 0 10 -10v0a10 10 0 0 1 10 -10" /><g>
<path d="M108.5 20h116.5" /></g><path d="M225.0 20a10 10 0 0 1 10 10v0a10 10 0 0 0 10 10" /><path d="M88.5 40h20" /><g>
<path d="M108.5 40h0.0" /><path d="M225.0 40h0.0" /><path d="M108.5 40h10" /><g class="non-terminal ">
<path d="M118.5 40h0.0" /><path d="M215.0 40h0.0" /><rect height="22" width="96.5" x="118.5" y="29"></rect><text x="166.75" y="44">Statement</text></g><path d="M215.0 40h10" /><path d="M118.5 40a10 10 0 0 0 -10 10v0a10 10 0 0 0 10 10" /><g>
<path d="M118.5 60h96.5" /></g><path d="M215.0 60a10 10 0 0 0 10 -10v0a10 10 0 0 0 -10 -10" /></g><path d="M225.0 40h20" /></g><path d="M245.0 40h10" /><g class="terminal ">
<path d="M255.0 40h0.0" /><path d="M283.5 40h0.0" /><rect height="22" rx="10" ry="10" width="28.5" x="255" y="29"></rect><text x="269.25" y="44">}</text></g></g><path d="M283.5 40h10" /><path d="M 293.5 40 h 20 m 0 -10 v 20"></path></g></g>
<text class="rule-name" x="24" y="180.0">Statement</text>
<g transform="translate(24 188.0)">
<g transform="translate(.5 .5)">
<g>
<path d="M20 21v20m0 -10h20" /></g><g>
<path d="M40 31h0.0" /><path d="M227.5 31h0.0" /><path d="M40.0 31h20" /><g class="non-terminal ">
<path d="M60.0 31h17.0" /><path d="M190.5 31h17.0" /><rect height="22" width="113.5" x="77" y="20"></rect><text x="133.75" y="35">Declaration</text></g><path d="M207.5 31h20" /><path d="M40.0 31a10 10 0 0 1 10 10v10a10 10 0 0 0 10 10" /><g class="non-terminal ">
<path d="M60.0 61h21.25" /><path d="M186.25 61h21.25" /><rect height="22" width="105" x="81.25" y="50"></rect><text x="133.75" y="65">Assignment</text></g><path d="M207.5 61a10 10 0 0 0 10 -10v-10a10 10 0 0 1 10 -10" /><path d="M40.0 31a10 10 0 0 1 10 10v40a10 10 0 0 0 10 10" /><g class="non-terminal ">
<path d="M60.0 91h25.5" /><path d="M182.0 91h25.5" /><rect height="22" width="96.5" x="85.5" y="80"></rect><text x="133.75" y="95">Condition</text></g><path d="M207.5 91a10 10 0 0 0 10 -10v-40a10 10 0 0 1 10 -10" /><path d="M40.0 31a10 10 0 0 1 10 10v70a10 10 0 0 0 10 10" /><g class="non-terminal ">
<path d="M60.0 121h46.75" /><path d="M160.75 121h46.75" /><rect height="22" width="54" x="106.75" y="110"></rect><text x="133.75" y="125">Loop</text></g><path d="M207.5 121a10 10 0 0 0 10 -10v-70a10 10 0 0 1 10 -10" /><path d="M40.0 31a10 10 0 0 1 10 10v100a10 10 0 0 0 10 10" /><g class="non-terminal ">
<path d="M60.0 151h46.75" /><path d="M160.75 151h46.75" /><rect height="22" width="54" x="106.75" y="140"></rect><text x="133.75" y="155">Call</text></g><path d="M207.5 151a10 10 0 0 0 10 -10v-100a10 10 0 0 1 10 -10" /><path d="M40.0 31a10 10 0 0 1 10 10v130a10 10 0 0 0 10 10" /><g class="non-terminal ">
<path d="M60.0 181h42.5" /><path d="M165.0 181h42.5" /><rect height="22" width="62.5" x="102.5" y="170"></rect><text x="133.75" y="185">Print</text></g><path d="M207.5 181a10 10 0 0 0 10 -10v-130a10 10 0 0 1 10 -10" /><path d="M40.0 31a10 10 0 0 1 10 10v160a10 10 0 0 0 10 10" /><g class="non-terminal ">
<path d="M60.0 211h0.0" /><path d="M207.5 211h0.0" /><rect height="22" width="147.5" x="60" y="200"></rect><text x="133.75" y="215">ReturnStatement</text></g><path d="M207.5 211a10 10 0 0 0 10 -10v-160a10 10 0 0 1 10 -10" /><path d="M40.0 31a10 10 0 0 1 10 10v190a10 10 0 0 0 10 10" /><g class="non-terminal ">
<path d="M60.0 241h4.25" /><path d="M203.25 241h4.25" /><rect height="22" width="139" x="64.25" y="230"></rect><text x="133.75" y="245">BreakStatement</text></g><path d="M207.5 241a10 10 0 0 0 10 -10v-190a10 10 0 0 1 10 -10" /></g><path d="M 227.5 31 h 20 m 0 -10 v 20"></path></g></g>
<text class="rule-name" x="24" y="486.0">Declaration</text>
<g transform="translate(24 494.0)">
<g transform="translate(.5 .5)">
<g>
<path d="M20 21v20m0 -10h20" /></g><path d="M40 31h10" /><g>
<path d="M50 31h0.0" /><path d="M695.5 31h0.0" /><g class="terminal ">
<path d="M50.0 31h0.0" /><path d="M95.5 31h0.0" /><rect height="22" rx="10" ry="10" width="45.5" x="50" y="20"></rect><text x="72.75" y="35">var</text></g><path d="M95.5 31h10" /><path d="M105.5 31h10" /><g class="non-terminal ">
<path d="M115.5 31h0.0" /><path d="M186.5 31h0.0" /><rect height="22" width="71" x="115.5" y="20"></rect><text x="151" y="35">IdList</text></g><path d="M186.5 31h10" /><path d="M196.5 31h10" /><g class="terminal ">
<path d="M206.5 31h0.0" /><path d="M235.0 31h0.0" /><rect height="22" rx="10" ry="10" width="28.5" x="206.5" y="20"></rect><text x="220.75" y="35">:</text></g><path d="M235.0 31h10" /><path d="M245.0 31h10" /><g class="non-terminal ">
<path d="M255.0 31h0.0" /><path d="M309.0 31h0.0" /><rect height="22" width="54" x="255" y="20"></rect><text x="282" y="35">Type</text></g><path d="M309.0 31h10" /><path d="M319.0 31h10" /><g class="terminal ">
<path d="M329.0 31h0.0" /><path d="M357.5 31h0.0" /><rect height="22" rx="10" ry="10" width="28.5" x="329" y="20"></rect><text x="343.25" y="35">;</text></g><path d="M357.5 31h10" /><path d="M367.5 31h10" /><g class="non-terminal ">
<path d="M377.5 31h0.0" /><path d="M695.5 31h0.0" /><text class="comment" x="536.5" y="36">visible until the end of the enclosing block</text></g></g><path d="M695.5 31h10" /><path d="M 705.5 31 h 20 m 0 -10 v 20"></path></g></g>
<text class="rule-name" x="24" y="582.0">Assignment</text>
<g transform="translate(24 590.0)">
<g transform="translate(.5 .5)">
<g>
<path d="M20 30v20m0 -10h20" /></g><path d="M40 40h10" /><g>
<path d="M50 40h0.0" /><path d="M619.0 40h0.0" /><g class="non-terminal ">
<path d="M50.0 40h0.0" /><path d="M155.0 40h0.0" /><rect height="22" width="105" x="50" y="29"></rect><text x="102.5" y="44">IDENTIFIER</text></g><path d="M155.0 40h10" /><g>
<path d="M165.0 40h0.0" /><path d="M407.0 40h0.0" /><path d="M165.0 40a10 10 0 0 0 10 -10v0a10 10 0 0 1 10 -10" /><g>
<path d="M185.0 20h202.0" /></g><path d="M387.0 20a10 10 0 0 1 10 10v0a10 10 0 0 0 10 10" /><path d="M165.0 40h20" /><g>
<path d="M185.0 40h0.0" /><path d="M387.0 40h0.0" /><g class="terminal ">
<path d="M185.0 40h0.0" /><path d="M213.5 40h0.0" /><rect height="22" rx="10" ry="10" width="28.5" x="185" y="29"></rect><text x="199.25" y="44">[</text></g><path d="M213.5 40h10" /><path d="M223.5 40h10" /><g class="non-terminal ">
<path d="M233.5 40h0.0" /><path d="M338.5 40h0.0" /><rect height="22" width="105" x="233.5" y="29"></rect><text x="286" y="44">Expression</text></g><path d="M338.5 40h10" /><path d="M348.5 40h10" /><g class="terminal ">
<path d="M358.5 40h0.0" /><path d="M387.0 40h0.0" /><rect height="22" rx="10" ry="10" width="28.5" x="358.5" y="29"></rect><text x="372.75" y="44">]</text></g></g><path d="M387.0 40h20" /></g><path d="M407.0 40h10" /><g class="terminal ">
<path d="M417.0 40h0.0" /><path d="M445.5 40h0.0" /><rect height="22" rx="10" ry="10" width="28.5" x="417" y="29"></rect><text x="431.25" y="44">=</text></g><path d="M445.5 40h10" /><path d="M455.5 40h10" /><g class="non-terminal ">
<path d="M465.5 40h0.0" /><path d="M570.5 40h0.0" /><rect height="22" width="105" x="465.5" y="29"></rect><text x="518" y="44">Expression</text></g><path d="M570.5 40h10" /><path d="M580.5 40h10" /><g class="terminal ">
<path d="M590.5 40h0.0" /><path d="M619.0 40h0.0" /><rect height="22" rx="10" ry="10" width="28.5" x="590.5" y="29"></rect><text x="604.75" y="44">;</text></g></g><path d="M619.0 40h10" /><path d="M 629.0 40 h 20 m 0 -10 v 20"></path></g></g>
<text class="rule-name" x="24" y="687.0">Condition</text>
<g transform="translate(24 695.0)">
<g transform="translate(.5 .5)">
<g>
<path d="M20 30v20m0 -10h20" /></g><path d="M40 40h10" /><g>
<path d="M50 40h0.0" /><path d="M599.5 40h0.0" /><g class="terminal ">
<path d="M50.0 40h0.0" /><path d="M87.0 40h0.0" /><rect height="22" rx="10" ry="10" width="37" x="50" y="29"></rect><text x="68.5" y="44">if</text></g><path d="M87.0 40h10" /><path d="M97.0 40h10" /><g class="terminal ">
<path d="M107.0 40h0.0" /><path d="M135.5 40h0.0" /><rect height="22" rx="10" ry="10" width="28.5" x="107" y="29"></rect><text x="121.25" y="44">(</text></g><path d="M135.5 40h10" /><path d="M145.5 40h10" /><g class="non-terminal ">
<path d="M155.5 40h0.0" /><path d="M260.5 40h0.0" /><rect height="22" width="105" x="155.5" y="29"></rect><text x="208" y="44">Expression</text></g><path d="M260.5 40h10" /><path d="M270.5 40h10" /><g class="terminal ">
<path d="M280.5 40h0.0" /><path d="M309.0 40h0.0" /><rect height="22" rx="10" ry="10" width="28.5" x="280.5" y="29"></rect><text x="294.75" y="44">)</text></g><path d="M309.0 40h10" /><path d="M319.0 40h10" /><g class="non-terminal ">
<path d="M329.0 40h0.0" /><path d="M383.0 40h0.0" /><rect height="22" width="54" x="329" y="29"></rect><text x="356" y="44">Body</text></g><path d="M383.0 40h10" /><g>
<path d="M393.0 40h0.0" /><path d="M561.0 40h0.0" /><path d="M393.0 40a10 10 0 0 0 10 -10v0a10 10 0 0 1 10 -10" /><g>
<path d="M413.0 20h128.0" /></g><path d="M541.0 20a10 10 0 0 1 10 10v0a10 10 0 0 0 10 10" /><path d="M393.0 40h20" /><g>
<path d="M413.0 40h0.0" /><path d="M541.0 40h0.0" /><g class="terminal ">
<path d="M413.0 40h0.0" /><path d="M467.0 40h0.0" /><rect height="22" rx="10" ry="10" width="54" x="413" y="29"></rect><text x="440" y="44">else</text></g><path d="M467.0 40h10" /><path d="M477.0 40h10" /><g class="non-terminal ">
<path d="M487.0 40h0.0" /><path d="M541.0 40h0.0" /><rect height="22" width="54" x="487" y="29"></rect><text x="514" y="44">Body</text></g></g><path d="M541.0 40h20" /></g><path d="M561.0 40h10" /><g class="terminal ">
<path d="M571.0 40h0.0" /><path d="M599.5 40h0.0" /><rect height="22" rx="10" ry="10" width="28.5" x="571" y="29"></rect><text x="585.25" y="44">;</text></g></g><path d="M599.5 40h10" /><path d="M 609.5 40 h 20 m 0 -10 v 20"></path></g></g>
<text class="rule-name" x="24" y="792.0">Loop</text>
<g transform="translate(24 800.0)">
<g transform="translate(.5 .5)">
<g>
<path d="M20 21v20m0 -10h20" /></g><path d="M40 31h10" /><g>
<path d="M50 31h0.0" /><path d="M514.0 31h0.0" /><g class="terminal ">
<path d="M50.0 31h0.0" /><path d="M87.0 31h0.0" /><rect height="22" rx="10" ry="10" width="37" x="50" y="20"></rect><text x="68.5" y="35">do</text></g><path d="M87.0 31h10" /><path d="M97.0 31h10" /><g class="non-terminal ">
<path d="M107.0 31h0.0" /><path d="M161.0 31h0.0" /><rect height="22" width="54" x="107" y="20"></rect><text x="134" y="35">Body</text></g><path d="M161.0 31h10" /><path d="M171.0 31h10" /><g class="terminal ">
<path d="M181.0 31h0.0" /><path d="M243.5 31h0.0" /><rect height="22" rx="10" ry="10" width="62.5" x="181" y="20"></rect><text x="212.25" y="35">while</text></g><path d="M243.5 31h10" /><path d="M253.5 31h10" /><g class="terminal ">
<path d="M263.5 31h0.0" /><path d="M292.0 31h0.0" /><rect height="22" rx="10" ry="10" width="28.5" x="263.5" y="20"></rect><text x="277.75" y="35">(</text></g><path d="M292.0 31h10" /><path d="M302.0 31h10" /><g class="non-terminal ">
<path d="M312.0 31h0.0" /><path d="M417.0 31h0.0" /><rect height="22" width="105" x="312" y="20"></rect><text x="364.5" y="35">Expression</text></g><path d="M417.0 31h10" /><path d="M427.0 31h10" /><g class="terminal ">
<path d="M437.0 31h0.0" /><path d="M465.5 31h0.0" /><rect height="22" rx="10" ry="10" width="28.5" x="437" y="20"></rect><text x="451.25" y="35">)</text></g><path d="M465.5 31h10" /><path d="M475.5 31h10" /><g class="terminal ">
<path d="M485.5 31h0.0" /><path d="M514.0 31h0.0" /><rect height="22" rx="10" ry="10" width="28.5" x="485.5" y="20"></rect><text x="499.75" y="35">;</text></g></g><path d="M514.0 31h10" /><path d="M 524.0 31 h 20 m 0 -10 v 20"></path></g></g>
<text class="rule-name" x="24" y="888.0">Call</text>
<g transform="translate(24 896.0)">
<g transform="translate(.5 .5)">
<g>
<path d="M20 30v20m0 -10h20" /></g><path d="M40 40h10" /><g>
<path d="M50 40h0.0" /><path d="M465.5 40h0.0" /><g class="non-terminal ">
<path d="M50.0 40h0.0" /><path d="M155.0 40h0.0" /><rect height="22" width="105" x="50" y="29"></rect><text x="102.5" y="44">IDENTIFIER</text></g><path d="M155.0 40h10" /><path d="M165.0 40h10" /><g class="terminal ">
<path d="M175.0 40h0.0" /><path d="M203.5 40h0.0" /><rect height="22" rx="10" ry="10" width="28.5" x="175" y="29"></rect><text x="189.25" y="44">(</text></g><path d="M203.5 40h10" /><g>
<path d="M213.5 40h0.0" /><path d="M378.5 40h0.0" /><path d="M213.5 40a10 10 0 0 0 10 -10v0a10 10 0 0 1 10 -10" /><g>
<path d="M233.5 20h125.0" /></g><path d="M358.5 20a10 10 0 0 1 10 10v0a10 10 0 0 0 10 10" /><path d="M213.5 40h20" /><g>
<path d="M233.5 40h0.0" /><path d="M358.5 40h0.0" /><path d="M233.5 40h10" /><g class="non-terminal ">
<path d="M243.5 40h0.0" /><path d="M348.5 40h0.0" /><rect height="22" width="105" x="243.5" y="29"></rect><text x="296" y="44">Expression</text></g><path d="M348.5 40h10" /><path d="M243.5 40a10 10 0 0 0 -10 10v10a10 10 0 0 0 10 10" /><g class="terminal ">
<path d="M243.5 70h38.25" /><path d="M310.25 70h38.25" /><rect height="22" rx="10" ry="10" width="28.5" x="281.75" y="59"></rect><text x="296" y="74">,</text></g><path d="M348.5 70a10 10 0 0 0 10 -10v-10a10 10 0 0 0 -10 -10" /></g><path d="M358.5 40h20" /></g><path d="M378.5 40h10" /><g class="terminal ">
<path d="M388.5 40h0.0" /><path d="M417.0 40h0.0" /><rect height="22" rx="10" ry="10" width="28.5" x="388.5" y="29"></rect><text x="402.75" y="44">)</text></g><path d="M417.0 40h10" /><path d="M427.0 40h10" /><g class="terminal ">
<path d="M437.0 40h0.0" /><path d="M465.5 40h0.0" /><rect height="22" rx="10" ry="10" width="28.5" x="437" y="29"></rect><text x="451.25" y="44">;</text></g></g><path d="M465.5 40h10" /><path d="M 475.5 40 h 20 m 0 -10 v 20"></path></g></g>
<text class="rule-name" x="24" y="1023.0">Print</text>
<g transform="translate(24 1031.0)">
<g transform="translate(.5 .5)">
<g>
<path d="M20 21v20m0 -10h20" /></g><path d="M40 31h10" /><g>
<path d="M50 31h0.0" /><path d="M403.0 31h0.0" /><g class="terminal ">
<path d="M50.0 31h0.0" /><path d="M112.5 31h0.0" /><rect height="22" rx="10" ry="10" width="62.5" x="50" y="20"></rect><text x="81.25" y="35">print</text></g><path d="M112.5 31h10" /><path d="M122.5 31h10" /><g class="terminal ">
<path d="M132.5 31h0.0" /><path d="M161.0 31h0.0" /><rect height="22" rx="10" ry="10" width="28.5" x="132.5" y="20"></rect><text x="146.75" y="35">(</text></g><path d="M161.0 31h10" /><path d="M171.0 31h10" /><g>
<path d="M181.0 31h0.0" /><path d="M306.0 31h0.0" /><path d="M181.0 31h10" /><g class="non-terminal ">
<path d="M191.0 31h0.0" /><path d="M296.0 31h0.0" /><rect height="22" width="105" x="191" y="20"></rect><text x="243.5" y="35">Expression</text></g><path d="M296.0 31h10" /><path d="M191.0 31a10 10 0 0 0 -10 10v10a10 10 0 0 0 10 10" /><g class="terminal ">
<path d="M191.0 61h38.25" /><path d="M257.75 61h38.25" /><rect height="22" rx="10" ry="10" width="28.5" x="229.25" y="50"></rect><text x="243.5" y="65">,</text></g><path d="M296.0 61a10 10 0 0 0 10 -10v-10a10 10 0 0 0 -10 -10" /></g><path d="M306.0 31h10" /><path d="M316.0 31h10" /><g class="terminal ">
<path d="M326.0 31h0.0" /><path d="M354.5 31h0.0" /><rect height="22" rx="10" ry="10" width="28.5" x="326" y="20"></rect><text x="340.25" y="35">)</text></g><path d="M354.5 31h10" /><path d="M364.5 31h10" /><g class="terminal ">
<path d="M374.5 31h0.0" /><path d="M403.0 31h0.0" /><rect height="22" rx="10" ry="10" width="28.5" x="374.5" y="20"></rect><text x="388.75" y="35">;</text></g></g><path d="M403.0 31h10" /><path d="M 413.0 31 h 20 m 0 -10 v 20"></path></g></g>
<text class="rule-name" x="24" y="1149.0">ReturnStatement</text>
<g transform="translate(24 1157.0)">
<g transform="translate(.5 .5)">
<g>
<path d="M20 30v20m0 -10h20" /></g><path d="M40 40h10" /><g>
<path d="M50 40h0.0" /><path d="M314.5 40h0.0" /><g class="terminal ">
<path d="M50.0 40h0.0" /><path d="M121.0 40h0.0" /><rect height="22" rx="10" ry="10" width="71" x="50" y="29"></rect><text x="85.5" y="44">return</text></g><path d="M121.0 40h10" /><g>
<path d="M131.0 40h0.0" /><path d="M276.0 40h0.0" /><path d="M131.0 40a10 10 0 0 0 10 -10v0a10 10 0 0 1 10 -10" /><g>
<path d="M151.0 20h105.0" /></g><path d="M256.0 20a10 10 0 0 1 10 10v0a10 10 0 0 0 10 10" /><path d="M131.0 40h20" /><g class="non-terminal ">
<path d="M151.0 40h0.0" /><path d="M256.0 40h0.0" /><rect height="22" width="105" x="151" y="29"></rect><text x="203.5" y="44">Expression</text></g><path d="M256.0 40h20" /></g><path d="M276.0 40h10" /><g class="terminal ">
<path d="M286.0 40h0.0" /><path d="M314.5 40h0.0" /><rect height="22" rx="10" ry="10" width="28.5" x="286" y="29"></rect><text x="300.25" y="44">;</text></g></g><path d="M314.5 40h10" /><path d="M 324.5 40 h 20 m 0 -10 v 20"></path></g></g>
<text class="rule-name" x="24" y="1254.0">BreakStatement</text>
<g transform="translate(24 1262.0)">
<g transform="translate(.5 .5)">
<g>
<path d="M20 21v20m0 -10h20" /></g><path d="M40 31h10" /><g>
<path d="M50 31h0.0" /><path d="M161.0 31h0.0" /><g class="terminal ">
<path d="M50.0 31h0.0" /><path d="M112.5 31h0.0" /><rect height="22" rx="10" ry="10" width="62.5" x="50" y="20"></rect><text x="81.25" y="35">break</text></g><path d="M112.5 31h10" /><path d="M122.5 31h10" /><g class="terminal ">
<path d="M132.5 31h0.0" /><path d="M161.0 31h0.0" /><rect height="22" rx="10" ry="10" width="28.5" x="132.5" y="20"></rect><text x="146.75" y="35">;</text></g></g><path d="M161.0 31h10" /><path d="M 171.0 31 h 20 m 0 -10 v 20"></path></g></g>
</svg>
